<?xml version="1.0" encoding="utf-8"?>
<!-- Generator: Adobe Illustrator 16.0.0, SVG Export Plug-In . SVG Version: 6.00 Build 0)  -->
<!DOCTYPE svg PUBLIC "-//W3C//DTD SVG 1.1//EN" "http://www.w3.org/Graphics/SVG/1.1/DTD/svg11.dtd">
<svg version="1.1" xmlns="http://www.w3.org/2000/svg" xmlns:xlink="http://www.w3.org/1999/xlink" x="0px" y="0px" width="1900px"
	 height="1400px" viewBox="0 0 1900 1400" enable-background="new 0 0 1900 1400" xml:space="preserve">
<g id="background">
	<g display="none">
		<rect x="550" y="300" display="inline" fill="#025108" width="800" height="800"/>
		<g display="inline">
			<linearGradient id="SVGID_1_" gradientUnits="userSpaceOnUse" x1="936.6436" y1="770.8311" x2="948.8096" y2="770.8311">
				<stop  offset="0" style="stop-color:#D1D3D4"/>
				<stop  offset="1" style="stop-color:#FFFFFF"/>
			</linearGradient>
			<path fill="url(#SVGID_1_)" d="M945.099,751.475c-4.669,0-8.455,8.668-8.455,19.357s3.786,19.355,8.455,19.355
				s3.607-8.666,3.607-19.355S949.768,751.475,945.099,751.475z"/>
			<linearGradient id="SVGID_2_" gradientUnits="userSpaceOnUse" x1="847.6953" y1="772.79" x2="850.9756" y2="772.79">
				<stop  offset="0" style="stop-color:#D1D3D4"/>
				<stop  offset="1" style="stop-color:#FFFFFF"/>
			</linearGradient>
			<path fill="url(#SVGID_2_)" d="M850.976,777.989v-6.794c-1.105-1.146-2.202-2.358-3.28-3.604L850.976,777.989z"/>
			<linearGradient id="SVGID_3_" gradientUnits="userSpaceOnUse" x1="951.1904" y1="770.8311" x2="963.3564" y2="770.8311">
				<stop  offset="0" style="stop-color:#D1D3D4"/>
				<stop  offset="1" style="stop-color:#FFFFFF"/>
			</linearGradient>
			<path fill="url(#SVGID_3_)" d="M954.9,790.188c4.671,0,8.456-8.666,8.456-19.355s-3.785-19.357-8.456-19.357
				c-4.668,0-3.606,8.668-3.606,19.357S950.232,790.188,954.9,790.188z"/>
			<linearGradient id="SVGID_4_" gradientUnits="userSpaceOnUse" x1="851.668" y1="820.4736" x2="1348.6836" y2="820.4736">
				<stop  offset="0" style="stop-color:#D1D3D4"/>
				<stop  offset="1" style="stop-color:#FFFFFF"/>
			</linearGradient>
			<path fill="url(#SVGID_4_)" d="M1055.226,540.948l-0.002,0c18.787,19.95,25.844,38.469,25.844,38.469s11.132,45.376,0,76.198
				c0,0-14.553,48.801-11.129,57.362c3.424,8.562,5.992,17.98-1.711,32.537c0,0-9.297,15.408-19.205,25.682v8.562
				c0,0-29.47,2.568-35.955,10.273v11.986l-25.289,14.875v19.195c0,0.463-0.375,0.84-0.839,0.84h-8.145
				c-0.464,0-0.84-0.377-0.84-0.84v-13.336c-1.105,0.273-2.351,0.533-3.752,0.777v13.748c0,0.463-0.375,0.84-0.839,0.84h-8.145
				c-0.462,0-0.838-0.377-0.838-0.84v-12.609c-1.008,0.074-2.059,0.141-3.158,0.197v13.602c0,0.463-0.376,0.838-0.84,0.838h-8.144
				c-0.461,0-0.839-0.375-0.839-0.838v-13.338c-0.462,0.004-0.927,0.006-1.401,0.006c-0.475,0-0.939-0.002-1.402-0.006v13.338
				c0,0.463-0.375,0.838-0.838,0.838h-8.144c-0.463,0-0.839-0.375-0.839-0.838v-13.602c-1.101-0.057-2.151-0.123-3.159-0.197v12.609
				c0,0.463-0.375,0.84-0.839,0.84h-8.144c-0.463,0-0.839-0.377-0.839-0.84v-13.748c-1.399-0.244-2.645-0.504-3.752-0.777v13.336
				c0,0.463-0.376,0.84-0.839,0.84h-8.145c-0.462,0-0.838-0.377-0.838-0.84v-19.195l-25.289-14.875v-11.986
				c-5.897-7.008-30.802-9.766-35.264-10.208l3.16,8.231l27.159,61.9l22.611,40.61L1159.817,1100h188.766l0.101-337.058
				L1055.226,540.948z"/>
			<linearGradient id="SVGID_5_" gradientUnits="userSpaceOnUse" x1="969.4072" y1="705.2432" x2="1055.9141" y2="705.2432">
				<stop  offset="0" style="stop-color:#D1D3D4"/>
				<stop  offset="1" style="stop-color:#FFFFFF"/>
			</linearGradient>
			<path fill="url(#SVGID_5_)" d="M991.125,735.236c26.498,13.699,53.101,12.561,62.158-13.697
				c11.518-33.39-18.511-49.658-18.511-49.658c-55.714-20.547-65.152,25.373-65.152,25.373
				C966.902,714.92,991.125,735.236,991.125,735.236z"/>
			<linearGradient id="SVGID_6_" gradientUnits="userSpaceOnUse" x1="844.0854" y1="705.2432" x2="930.5928" y2="705.2432">
				<stop  offset="0" style="stop-color:#D1D3D4"/>
				<stop  offset="1" style="stop-color:#FFFFFF"/>
			</linearGradient>
			<path fill="url(#SVGID_6_)" d="M908.874,735.236c0,0,24.224-20.316,21.507-37.983c0,0-9.438-45.919-65.152-25.373
				c0,0-30.03,16.268-18.511,49.658C855.776,747.797,882.378,748.936,908.874,735.236z"/>
		</g>
	</g>
	<rect fill="#F1F2F2" width="1900" height="1400"/>
</g>
<g id="elements">
	<ellipse fill="#E6E7E8" cx="898.073" cy="1107.684" rx="745.137" ry="32.895"/>
	<ellipse fill="#E6E7E8" cx="1265.746" cy="1130.118" rx="104.772" ry="21.907"/>
	<ellipse fill="#E6E7E8" cx="1664.142" cy="1126.021" rx="104.772" ry="21.907"/>
	<ellipse fill="#E6E7E8" cx="1476.405" cy="1152.025" rx="154.439" ry="21.907"/>
	<g>
		<rect x="705.432" y="865.554" fill="#58595B" width="853.952" height="55.485"/>
		<polygon fill="#58595B" points="1559.384,922.474 1215.687,959.619 1215.687,899.726 		"/>
		<path fill="#F15A29" d="M230.202,845.552h-61.133c-1.461,0-2.646,1.577-2.646,3.523v38.215v5.751c0,1.945,1.185,3.524,2.646,3.524
			h61.133c1.461,0,2.645-1.579,2.645-3.524v-5.751v-38.215C232.847,847.129,231.663,845.552,230.202,845.552z"/>
		<path fill="#BE1E2D" d="M200.263,910.869h-24.375c-0.583,0-1.054,0.629-1.054,1.404v15.236v2.294c0,0.776,0.472,1.405,1.054,1.405
			h24.375c0.582,0,1.055-0.629,1.055-1.405v-2.294v-15.236C201.318,911.498,200.845,910.869,200.263,910.869z"/>
		<path fill="#BCBEC0" d="M251.995,897.151c0,2.31-1.406,4.184-3.14,4.184h-72.564c-1.734,0-3.14-1.874-3.14-4.184v-52.188
			c0-2.309,1.406-4.183,3.14-4.183h72.564c1.734,0,3.14,1.874,3.14,4.183V897.151z"/>
		<path fill="#E6E7E8" d="M251.995,890.326v-45.362c0-2.309-1.406-4.183-3.14-4.183h-72.564c-1.734,0-3.14,1.874-3.14,4.183v45.362
			H251.995z"/>
		<rect x="265.355" y="868.549" fill="#231F20" width="341.358" height="124.902"/>
		<path fill="#FBB040" d="M675.767,723.131h-467.18c-16.383,0-29.665,13.28-29.665,29.664v210.991
			c0,16.384,13.281,29.665,29.665,29.665h88.673c4.741-65.28,59.199-116.77,125.687-116.77c66.489,0,120.948,51.489,125.688,116.77
			h127.132c16.383,0,29.665-13.281,29.665-29.665V752.795V724.69L675.767,723.131z"/>
		<path fill="#EFA23C" d="M675.767,961.207H542.749c-33.063-70.881-89.174-84.525-119.802-84.525
			c-51.062,0-98.913,34.188-119.8,84.525h-94.56c-16.383,0-29.665-11.697-29.665-26.127v28.706
			c0,16.384,13.281,29.665,29.665,29.665h88.673c4.741-65.28,59.199-116.77,125.687-116.77c66.489,0,120.948,51.489,125.688,116.77
			h127.132c16.383,0,29.665-13.281,29.665-29.665V935.08C705.432,949.51,692.15,961.207,675.767,961.207z"/>
		<polygon fill="#FBB040" points="705.432,724.69 705.432,513.781 373.261,513.781 265.355,724.69 		"/>
		<path fill="none" stroke="#AF961E" stroke-width="4" stroke-miterlimit="10" d="M641.82,529.973H445.719
			c-8.507,0-15.856,4.961-19.312,12.147l-73.502,147.126v90.992v0.604v57.112v5.385h0.081c-0.05,0.56-0.081,1.125-0.081,1.697
			c0,10.307,8.355,18.663,18.663,18.663h4.8h35.981c141.281,0,151.298,115.86,151.298,115.86h44.036h63.103l0.062-0.075
			c0.539,0.047,1.083,0.075,1.634,0.075c10.307,0,18.663-8.355,18.663-18.662v-6.124V831.3V579.301
			C691.144,552.058,669.062,529.973,641.82,529.973z"/>
		<path fill="#E29530" d="M705.432,500.086h-334.17c-3.781,0-6.847,3.065-6.847,6.848s3.065,6.848,6.847,6.848h334.17V500.086z"/>
		<polygon fill="#B6F2EF" points="296.873,709.567 382.997,541.23 359.306,541.23 273.181,709.567 		"/>
		<path fill="#B6F2EF" d="M455.347,542.299c-7.413,0-13.816,4.323-16.828,10.584l-64.043,128.194c-1.644,2.78-2.59,6.02-2.59,9.483
			c0,10.307,8.355,18.663,18.663,18.663h63.103v-0.08c0.559,0.05,1.124,0.08,1.697,0.08c10.307,0,18.662-8.355,18.662-18.663
			V560.962C474.009,550.655,465.654,542.299,455.347,542.299z"/>
		<path fill="#B6F2EF" d="M669.19,666.242c0,23.738-19.24,42.981-42.978,42.981h-80.306c-23.738,0-42.981-19.243-42.981-42.981
			v-80.962c0-23.737,19.243-42.98,42.981-42.98h80.306c23.738,0,42.978,19.243,42.978,42.98V666.242z"/>
		<polygon fill="#A5DBD7" points="289.628,677.42 273.181,709.567 296.873,709.567 313.32,677.42 		"/>
		<path fill="#A7A9AC" d="M283.611,1009.83c0,2.874-2.331,5.204-5.204,5.204H158.134c-2.875,0-5.205-2.33-5.205-5.204v-64.916
			c0-2.873,2.33-5.204,5.205-5.204h120.273c2.874,0,5.204,2.331,5.204,5.204V1009.83z"/>
		<path fill="#E6E7E8" d="M283.611,1001.339v-56.425c0-2.873-2.331-5.204-5.204-5.204H158.134c-2.875,0-5.205,2.331-5.205,5.204
			v56.425H283.611z"/>
		<g>
			<circle fill="#414042" cx="422.948" cy="1002.709" r="111.976"/>
			<path fill="#353535" d="M422.947,1093.373c-59.966,0-108.92-42.652-111.835-96.258c-0.092,1.854-0.14,3.718-0.14,5.594
				c0,61.842,50.133,111.976,111.975,111.976c61.843,0,111.977-50.134,111.977-111.976c0-1.876-0.048-3.74-0.14-5.594
				C531.869,1050.721,482.914,1093.373,422.947,1093.373z"/>
			<circle fill="none" stroke="#E6E7E8" stroke-width="6" stroke-miterlimit="10" cx="422.948" cy="1002.709" r="58.209"/>
			<ellipse fill="#BCBEC0" cx="422.947" cy="1002.709" rx="17.004" ry="58.209"/>
			
				<ellipse transform="matrix(0.7071 -0.7071 0.7071 0.7071 -585.1441 592.7552)" fill="#BCBEC0" cx="422.947" cy="1002.709" rx="17.004" ry="58.209"/>
			<ellipse fill="#BCBEC0" cx="422.947" cy="1002.709" rx="58.208" ry="17.004"/>
			
				<ellipse transform="matrix(-0.7071 -0.7071 0.7071 -0.7071 12.9533 2010.7827)" fill="#BCBEC0" cx="422.947" cy="1002.708" rx="17.004" ry="58.209"/>
			<circle fill="#E6E7E8" cx="422.948" cy="1002.709" r="49.659"/>
			<circle fill="#E6E7E8" stroke="#414042" stroke-width="7" stroke-miterlimit="10" cx="422.947" cy="1002.709" r="18.979"/>
		</g>
		<g>
			<circle fill="#414042" cx="1227.651" cy="1002.709" r="111.975"/>
			<path fill="#353535" d="M1227.651,1093.373c-59.968,0-108.921-42.652-111.837-96.258c-0.091,1.854-0.139,3.718-0.139,5.594
				c0,61.842,50.133,111.976,111.976,111.976c61.842,0,111.975-50.134,111.975-111.976c0-1.876-0.049-3.74-0.139-5.594
				C1336.571,1050.721,1287.616,1093.373,1227.651,1093.373z"/>
			<circle fill="none" stroke="#E6E7E8" stroke-width="6" stroke-miterlimit="10" cx="1227.65" cy="1002.709" r="58.208"/>
			<ellipse fill="#BCBEC0" cx="1227.65" cy="1002.709" rx="17.003" ry="58.209"/>
			
				<ellipse transform="matrix(0.7071 -0.7071 0.7071 0.7071 -349.4515 1161.7672)" fill="#BCBEC0" cx="1227.651" cy="1002.709" rx="17.004" ry="58.21"/>
			<ellipse fill="#BCBEC0" cx="1227.651" cy="1002.709" rx="58.21" ry="17.004"/>
			
				<ellipse transform="matrix(-0.7071 -0.7071 0.7071 -0.7071 1386.678 2579.8145)" fill="#BCBEC0" cx="1227.651" cy="1002.708" rx="17.004" ry="58.21"/>
			<circle fill="#E6E7E8" cx="1227.65" cy="1002.709" r="49.659"/>
			<circle fill="#E6E7E8" stroke="#414042" stroke-width="7" stroke-miterlimit="10" cx="1227.651" cy="1002.709" r="18.978"/>
		</g>
		
			<line fill="none" stroke="#AF961E" stroke-width="4" stroke-miterlimit="10" x1="178.922" y1="801.413" x2="705.432" y2="801.413"/>
		
			<line fill="none" stroke="#AF961E" stroke-width="4" stroke-miterlimit="10" x1="178.922" y1="813.663" x2="705.432" y2="813.663"/>
		
			<line fill="none" stroke="#AF961E" stroke-width="8" stroke-miterlimit="10" x1="178.922" y1="807.658" x2="705.432" y2="807.658"/>
		<g>
			<path fill="#E89931" d="M669.19,769.503c0,8.139-6.597,14.736-14.736,14.736h-40.907c-8.138,0-14.736-6.598-14.736-14.736l0,0
				c0-8.14,6.598-14.736,14.736-14.736h40.907C662.593,754.767,669.19,761.363,669.19,769.503L669.19,769.503z"/>
			<path fill="#E6E7E8" d="M669.19,762.135c0,4.069-3.298,7.368-7.368,7.368h-55.643c-4.069,0-7.368-3.299-7.368-7.368l0,0
				c0-4.069,3.299-7.368,7.368-7.368h55.643C665.892,754.767,669.19,758.065,669.19,762.135L669.19,762.135z"/>
			<path fill="#D1D3D4" d="M598.824,762.382c0.131,3.954,3.369,7.121,7.355,7.121h55.643c3.986,0,7.225-3.167,7.356-7.121H598.824z"
				/>
		</g>
		<g>
			<ellipse fill="#E6E7E8" cx="225.76" cy="769.503" rx="20.347" ry="13.575"/>
			<circle fill="#EF4136" cx="225.761" cy="769.503" r="15.774"/>
			<path fill="#DD332F" d="M225.76,777.094c-7.913,0-14.463-4.314-15.598-9.941c-0.115,0.768-0.175,1.551-0.175,2.351
				c0,8.712,7.062,15.773,15.773,15.773c8.712,0,15.774-7.062,15.774-15.773c0-0.8-0.061-1.583-0.176-2.351
				C240.224,772.779,233.674,777.094,225.76,777.094z"/>
		</g>
		<rect x="738.644" y="285.315" fill="#E6E7E8" width="892.214" height="580.238"/>
		<g>
			<rect x="738.644" y="865.554" fill="#6D6E71" width="117.271" height="78.946"/>
			<rect x="761.417" y="865.554" fill="#939598" width="71.725" height="45.315"/>
		</g>
		<g>
			<path fill="#D1D3D4" d="M1115.676,910.591c0,19.959-20.691,36.14-46.214,36.14H927.626c-25.531,0-46.226-16.181-46.226-36.14l0,0
				c0-19.958,20.694-36.14,46.226-36.14h141.835C1094.984,874.451,1115.676,890.633,1115.676,910.591L1115.676,910.591z"/>
			
				<line fill="none" stroke="#44433F" stroke-width="6" stroke-miterlimit="10" x1="930.458" y1="874.451" x2="930.458" y2="946.73"/>
			
				<line fill="none" stroke="#44433F" stroke-width="6" stroke-miterlimit="10" x1="1066.633" y1="874.451" x2="1066.633" y2="946.73"/>
		</g>
		<text transform="matrix(1 0 0 1 949.2314 538.627)"><tspan x="0" y="0" fill="#F15A29" font-family="'JosefinSans-Regular'" font-size="107.1021">MOVING</tspan><tspan x="56.229" y="128.522" fill="#F15A29" font-family="'JosefinSans-Regular'" font-size="107.1021">TRUCK</tspan></text>
		<path fill="#D1D3D4" d="M1184.761,801.413c-180.323,0-341.192-55.219-446.117-141.517v205.658h892.214V659.896
			C1525.933,746.193,1365.084,801.413,1184.761,801.413z"/>
		<g>
			<rect x="1178.712" y="914.699" fill="#BA9168" width="183.659" height="214.959"/>
			<polyline opacity="0.5" fill="#A97C50" points="1362.371,1129.658 1178.712,1129.658 1178.712,914.699 			"/>
		</g>
		<g>
			<rect x="1538.352" y="941.008" fill="#BA9168" width="185.012" height="185.013"/>
			<polyline opacity="0.5" fill="#A97C50" points="1723.363,1126.021 1538.352,1126.021 1538.352,941.008 			"/>
		</g>
		<g>
			<rect x="1321.979" y="882.493" fill="#C49A6C" width="274.438" height="274.438"/>
			<polyline opacity="0.3" fill="#A97C50" points="1596.417,1156.932 1321.979,1156.932 1321.979,882.493 			"/>
		</g>
		<path fill="#9FEDE7" d="M547.561,571.133c-14.622,0-28.991,0.886-43.044,2.569c-1.029,3.685-1.591,7.564-1.591,11.578v80.962
			c0,23.738,19.243,42.981,42.981,42.981h80.306c23.738,0,42.978-19.243,42.978-42.981v-73.686
			C632.095,578.794,590.918,571.133,547.561,571.133z"/>
		<path fill="#A5DBD7" d="M504.403,677.42c4.921,18.316,21.634,31.803,41.504,31.803h80.306c19.87,0,36.58-13.486,41.5-31.803
			H504.403z"/>
		<path fill="#9FEDE7" d="M416.95,596.058l-42.474,85.019c-1.644,2.78-2.59,6.02-2.59,9.483c0,10.307,8.355,18.663,18.663,18.663
			h63.103v-0.08c0.559,0.05,1.124,0.08,1.697,0.08c10.307,0,18.662-8.355,18.662-18.663V578.706
			C454.099,582.89,435.008,588.745,416.95,596.058z"/>
		<path fill="#A5DBD7" d="M376.302,677.42l-1.827,3.657c-1.644,2.78-2.59,6.02-2.59,9.483c0,10.307,8.355,18.663,18.663,18.663
			h63.103v-0.08c0.559,0.05,1.124,0.08,1.697,0.08c10.307,0,18.662-8.355,18.662-18.663v-13.14H376.302z"/>
	</g>
</g>
</svg>
